<svg xmlns="http://www.w3.org/2000/svg" xmlns:xlink="http://www.w3.org/1999/xlink" width="649.39" height="390.011" viewBox="0 0 649.39 390.011">
  <defs>
    <clipPath id="clip-path">
      <path id="Rectangle_13" data-name="Rectangle 13" d="M2.419,0H646.972a2.418,2.418,0,0,1,2.418,2.418V387.592a2.419,2.419,0,0,1-2.419,2.419H2.418A2.418,2.418,0,0,1,0,387.593V2.419A2.419,2.419,0,0,1,2.419,0Z" transform="translate(49.945 54.803)" fill="none"/>
    </clipPath>
    <linearGradient id="linear-gradient" x1="7.508" y1="0.809" x2="7.634" y2="0.465" gradientUnits="objectBoundingBox">
      <stop offset="0" stop-color="#f8ee7d"/>
      <stop offset="0.027" stop-color="#f8ed72"/>
      <stop offset="0.142" stop-color="#faea4b"/>
      <stop offset="0.202" stop-color="#fbea3c"/>
      <stop offset="1" stop-color="#fb973d"/>
    </linearGradient>
    <linearGradient id="linear-gradient-2" x1="5.909" y1="-0.95" x2="6.954" y2="-0.95" gradientUnits="objectBoundingBox">
      <stop offset="0.073" stop-color="#66b8d0"/>
      <stop offset="0.858" stop-color="#228bd0"/>
    </linearGradient>
    <linearGradient id="linear-gradient-3" x1="11.21" y1="0.583" x2="11.433" y2="0.348" gradientUnits="objectBoundingBox">
      <stop offset="0.145" stop-color="#6912c6"/>
      <stop offset="0.859" stop-color="#401696"/>
    </linearGradient>
    <linearGradient id="linear-gradient-4" x1="6.699" y1="0.635" x2="6.752" y2="0.426" xlink:href="#linear-gradient-2"/>
    <linearGradient id="linear-gradient-5" x1="16.925" y1="0.505" x2="17.205" y2="0.313" gradientUnits="objectBoundingBox">
      <stop offset="0.11" stop-color="#fe96ac"/>
      <stop offset="0.44" stop-color="#fb7792"/>
      <stop offset="0.783" stop-color="#f95d7c"/>
      <stop offset="0.989" stop-color="#f95475"/>
    </linearGradient>
    <linearGradient id="linear-gradient-6" x1="7.149" y1="0.568" x2="6.956" y2="0.929" xlink:href="#linear-gradient"/>
    <linearGradient id="linear-gradient-7" x1="9.98" y1="0.5" x2="10.98" y2="0.5" xlink:href="#linear-gradient-3"/>
    <linearGradient id="linear-gradient-8" x1="8.132" y1="0.867" x2="8.3" y2="0.312" xlink:href="#linear-gradient-2"/>
    <linearGradient id="linear-gradient-9" x1="19.325" y1="0.5" x2="20.325" y2="0.5" xlink:href="#linear-gradient-5"/>
  </defs>
  <g id="Group_15" data-name="Group 15" transform="translate(-49.945 -54.803)" clip-path="url(#clip-path)">
    <g id="Group_14" data-name="Group 14" transform="translate(-1 -43)">
      <path id="Path_1" data-name="Path 1" d="M306.929,220.52c-15.133-1.121-30.745-2.182-45.1,2.934-35.788,12.754-50.764,57.791-82.336,79.508C156.177,319,126.3,320.505,98.572,317.044c-19.285-2.407-38.711-6.958-57.934-4.058C19.27,316.209.177,328.35-17.546,341.211" fill="none" stroke="#707070" stroke-miterlimit="10" stroke-width="0.5"/>
      <path id="Path_2" data-name="Path 2" d="M515.62,48.14c-31.174-1.22-61.414,21.761-67,50.914-7.317,38.221,22.214,82.651-2.309,113.744-9.956,12.621-26.662,18.859-43.052,21.391-32.869,5.077-66.23-2.323-99.257-6.373s-68.97-4.121-96.689,13.4c-27.874,17.625-46.722,52.186-80.125,54.438C95.7,297.781,70.811,269,39.617,264.4V33.471Z" fill="url(#linear-gradient)"/>
      <path id="Path_3" data-name="Path 3" d="M485.134-17.424C469-13.443,455.535-1.214,446.667,13.4s-13.623,31.519-17.152,48.42c-4.048,19.387-7.123,40.216-19.682,55.119-14.566,17.284-38.842,22.3-60.767,19.719s-42.615-11.526-63.808-17.922c-20.292-6.124-42.952-9.721-61.884.052-12.72,6.567-22.121,18.37-30.8,30.079-26.809,36.146-51.172,75.258-85.691,103.4s-82.82,43.536-122.725,24.668L-57.174,143.1,464.82-24.671Z" fill="url(#linear-gradient-2)"/>
      <path id="Path_4" data-name="Path 4" d="M367.581,12.838c-30.055,10.238-56.8,37.217-58.754,70.132-1.807,30.515,17.154,61.262,8.172,90.365-9.922,32.148-47.69,43.6-80,45.766s-68.347,1.313-92.189,24.165c-13.669,13.1-20.721,31.885-27.316,49.984s-13.6,36.89-27.216,50.054-35.93,18.718-50.855,7.2V26.33Z" fill="url(#linear-gradient-3)"/>
      <path id="Path_5" data-name="Path 5" d="M485.134-17.424C469-13.443,455.535-1.214,446.667,13.4s-13.623,31.519-17.152,48.42c-4.048,19.387-7.123,40.216-19.682,55.119-14.566,17.284-38.842,22.3-60.767,19.719s-42.615-11.526-63.808-17.922c-20.292-6.124-42.952-9.721-61.884.052-12.72,6.567-22.121,18.37-30.8,30.079-26.809,36.146-51.172,75.258-85.691,103.4s-82.817,43.536-122.722,24.67c-5.556-2.627-10.34-35.1-12.636-40.921-7.613-19.3-19.014-36.78-25.846-56.921C-69.159,135.371-73.783,88.745-78.24,42.874c-.282-2.894-.48-6.112,1.236-8.406,1.827-2.443,5.126-2.925,8.084-3.207a988.032,988.032,0,0,1,171.371-1.4c17.009,1.341,34.216,3.115,51.037.159,13.966-2.454,27.2-8.09,40.6-12.863C246.8-1.624,305.321-8.112,360.488,1.114c33.142,5.542,72-15.394,104.332-25.785Z" opacity="0.4" fill="url(#linear-gradient-4)" style="mix-blend-mode: overlay;isolation: isolate"/>
      <path id="Path_6" data-name="Path 6" d="M241.813,52.175c-38.382,8.4-70.186,43.051-76.568,83.41-3.118,19.722-1.593,42.525-15.255,56.542-13.44,13.788-35.26,12.247-52.374,20.492-21.5,10.359-33.025,34.642-42.1,57.458s-18.5,47.479-38.342,60.963V52.175Z" fill="url(#linear-gradient-5)"/>
      <path id="Path_7" data-name="Path 7" d="M312.66,47.615C274.8,36.956,231.388,52.8,208.157,85.753c-11.353,16.1-19.9,37.15-38.175,43.182-17.973,5.935-36.752-5.757-55.59-6.5-23.667-.934-44.494,15.26-62.5,31.3S14.764,187.309-8.785,189.945L75.531-72.791Z" fill="#fff" opacity="0.4" style="mix-blend-mode: overlay;isolation: isolate"/>
      <path id="Path_8" data-name="Path 8" d="M365.48,33.471c-26.45,10.971-45.65,40.432-46.592,71.493-.394,13.019,2.13,25.942,2.389,38.966s-2.2,27.022-10.689,36.108c-4.708,5.039-10.869,8.119-17.115,10.361-21.878,7.852-45.456,6.4-68.434,7.8s-47.385,6.588-63.753,24.372c-22.067,23.976-24.453,65.33-49.481,85.486-15.084,12.148-34.885,13.592-53.02,18.6C32.529,333.914,8.248,349.6-10.3,371.277c-7.728,9.034-14.524,19.124-23.268,26.959s-20.12,13.321-31.2,11" fill="none" stroke="#707070" stroke-miterlimit="10" stroke-width="0.5"/>
      <path id="Path_9" data-name="Path 9" d="M247.87,52.7c-28.887,3.2-54.315,28.029-59.283,57.882-3.447,20.715,1.231,44.94-12.287,60.535-11.072,12.772-29.58,13.793-46.068,14.652-16.338.852-32.848,2.475-48.26,8.195s-29.791,15.952-37.965,30.731c-7.052,12.75-9.008,27.76-12.985,41.883S19.934,295.242,7.066,301.286c-9.8,4.6-21.118,3.419-31.667,5.577a52.6,52.6,0,0,0-31.44,20.33" fill="none" stroke="#707070" stroke-miterlimit="10" stroke-width="0.5"/>
      <path id="Path_10" data-name="Path 10" d="M706.536,114.771a228.426,228.426,0,0,0-52.8,9.51c-7.164,2.185-14.385,4.814-20.145,9.6-10.508,8.731-14.432,23.248-14.668,36.908-.4,23.366,8.121,45.811,13.842,68.469s8.379,47.877-2.836,68.379c-10.849,19.835-32.732,31.3-54.662,36.791s-44.789,6.147-66.957,10.582a201.108,201.108,0,0,0-114.243,68.135c-12.543,15.113-22.783,31.994-34.839,47.5-6.149,7.908-12.869,15.544-21.174,21.146-20.245,13.656-46.94,13.314-70.769,7.973V524.27l444.79-12.838Z" fill="url(#linear-gradient-6)"/>
      <path id="Path_11" data-name="Path 11" d="M714.851,165.713c-10.416-6.036-23.554-6.744-34.886-2.68a40.964,40.964,0,0,0-18.312,12.859c-8.637,10.906-10.37,25.753-9.77,39.653s3.188,27.795,1.836,41.641a74.8,74.8,0,0,1-35.238,55.864c-18.145,10.942-40.052,13.565-59.475,22.03-36.845,16.056-61.422,51.476-79.346,87.449-11.84,23.765-22.937,50.023-45.529,63.969h266.94Z" fill="url(#linear-gradient-7)"/>
      <path id="Path_12" data-name="Path 12" d="M723.089,187.8c-20.869-9.439-47.973-1.953-61.04,16.858C649.469,222.77,650.213,247,640.914,267a67.215,67.215,0,0,1-30.861,31.614c-11.2,5.541-23.739,7.835-35.166,12.891a79,79,0,0,0-31.553,25.372c-8.612,11.739-13.772,25.579-19.455,38.984-12.358,29.155-30.239,59.392-60.12,69.872-14.474,5.077-30.169,4.865-45.438,6.327S387,457.2,376.2,468.092" fill="none" stroke="#707070" stroke-miterlimit="10" stroke-width="0.5"/>
      <path id="Path_13" data-name="Path 13" d="M768.146,320.29c-38.044-14.879-82.689-1.975-114.628,23.493-15.7,12.517-29.5,28.128-47.943,36.054-32.725,14.061-70.9.484-105.834,7.434-37.153,7.392-65.6,36.676-89.98,65.671H753.339Z" fill="url(#linear-gradient-8)"/>
      <path id="Path_14" data-name="Path 14" d="M768.146,320.29c-38.044-14.879-82.689-1.975-114.628,23.493-15.7,12.517-29.5,28.128-47.943,36.054-32.725,14.061-70.9.484-105.834,7.434-37.153,7.392-65.6,36.676-89.98,65.671H753.339Z" fill="#fff" opacity="0.3" style="mix-blend-mode: overlay;isolation: isolate"/>
      <path id="Path_15" data-name="Path 15" d="M732.253,288.335c-25.178,3.324-53.2,11.825-64.2,34.714-9.614,20-2.75,44.265-9.143,65.516-9.64,32.047-45.768,48.412-62.314,77.5h135.66Z" fill="url(#linear-gradient-9)"/>
      <path id="Path_16" data-name="Path 16" d="M699.82,277.347a60.175,60.175,0,0,0-43.37,32.806c-8.467,17.728-7.611,38.256-7.708,57.9s-1.844,40.708-14.134,56.036c-14.478,18.056-39.271,23.18-61.791,28.513s-47.284,14.123-57.049,35.105" fill="none" stroke="#707070" stroke-miterlimit="10" stroke-width="0.5"/>
      <g id="Group_13" data-name="Group 13" opacity="0.3">
        <path id="Path_17" data-name="Path 17" d="M433.151-35.673C421.043-26.527,408.614-17.02,401.206-3.7c-18.468,33.2.007,76.921-9.378,114.074-6.93,27.435-28.379,48.286-51.5,63.988-16.076,10.92-33.674,20.323-46.2,35.189-13.925,16.525-20.254,38.248-25.08,59.607" fill="none" stroke="#fff" stroke-miterlimit="10" stroke-width="0.5" style="mix-blend-mode: overlay;isolation: isolate"/>
        <path id="Path_18" data-name="Path 18" d="M224.938-47.092C198.488-36.121,179.288-6.66,178.346,24.4c-.395,13.019,2.13,25.942,2.389,38.966s-2.2,27.022-10.689,36.108c-4.709,5.039-10.869,8.119-17.115,10.361-21.878,7.852-45.456,6.4-68.434,7.8s-47.385,6.588-63.753,24.372c-22.067,23.976-24.453,65.33-49.481,85.486-15.084,12.148-34.885,13.592-53.021,18.6-26.255,7.254-50.536,22.935-69.081,44.617-7.728,9.034-14.524,19.124-23.268,26.959s-20.12,13.321-31.2,11" fill="none" stroke="#fff" stroke-miterlimit="10" stroke-width="0.5" style="mix-blend-mode: overlay;isolation: isolate"/>
        <path id="Path_19" data-name="Path 19" d="M299.4,35.579c-28.888,3.2-54.315,28.029-59.283,57.883-3.447,20.714,1.231,44.939-12.287,60.534-11.072,12.772-29.58,13.793-46.068,14.652-16.338.852-32.848,2.475-48.26,8.2s-29.791,15.952-37.965,30.731c-7.052,12.75-9.008,27.76-12.985,41.883S71.469,278.124,58.6,284.168c-9.8,4.6-21.118,3.419-31.667,5.577a52.6,52.6,0,0,0-31.441,20.33" fill="none" stroke="#fff" stroke-miterlimit="10" stroke-width="0.5" style="mix-blend-mode: overlay;isolation: isolate"/>
        <path id="Path_20" data-name="Path 20" d="M858.611,196.926c-20.869-9.439-47.973-1.953-61.04,16.858-12.58,18.111-11.836,42.344-21.136,62.34a67.211,67.211,0,0,1-30.86,31.613c-11.2,5.541-23.74,7.835-35.166,12.891A79,79,0,0,0,678.856,346c-8.612,11.739-13.772,25.579-19.455,38.984-12.358,29.155-30.239,59.392-60.12,69.872-14.474,5.077-30.169,4.865-45.438,6.327s-31.318,5.147-42.123,16.034" fill="none" stroke="#fff" stroke-miterlimit="10" stroke-width="0.5" style="mix-blend-mode: overlay;isolation: isolate"/>
        <path id="Path_21" data-name="Path 21" d="M709.041,146.639c-24.692,4.724-46.891,23.441-57.688,48.64C640.09,221.564,641.229,252,641.1,281.13s-2.453,60.357-18.8,83.083c-19.258,26.771-52.236,34.368-82.191,42.275s-62.9,20.94-75.883,52.051" fill="none" stroke="#fff" stroke-miterlimit="10" stroke-width="0.5" style="mix-blend-mode: overlay;isolation: isolate"/>
      </g>
      <path id="Path_22" data-name="Path 22" d="M775.871,311.166c-40.842-.843-78.295,26.669-99.489,61.591-10.416,17.164-17.983,36.576-32.564,50.379-25.866,24.487-66.381,24.911-96.773,43.485-32.323,19.754-48.926,57.054-61.8,92.679L807.73,440.784Z" fill="#fff" opacity="0.4" style="mix-blend-mode: overlay;isolation: isolate"/>
    </g>
  </g>
</svg>
