<svg xmlns="http://www.w3.org/2000/svg" xmlns:xlink="http://www.w3.org/1999/xlink" width="580.667" height="372.905" viewBox="0 0 580.667 372.905">
  <defs>
    <clipPath id="clip-path">
      <rect id="Rectangle_20" data-name="Rectangle 20" width="580.667" height="372.905" transform="translate(84.667 63.547)" fill="none"/>
    </clipPath>
    <radialGradient id="radial-gradient" cx="0.5" cy="0.5" r="0.729" gradientTransform="translate(0.223) scale(0.554 1)" gradientUnits="objectBoundingBox">
      <stop offset="0.005" stop-color="#de3dbf"/>
      <stop offset="1" stop-color="#67219e"/>
    </radialGradient>
    <radialGradient id="radial-gradient-2" cx="0.708" cy="0.221" r="1.196" gradientTransform="translate(0.237) scale(0.525 1)" xlink:href="#radial-gradient"/>
    <radialGradient id="radial-gradient-3" cx="0.832" cy="0.461" r="1.564" gradientTransform="translate(0.205) scale(0.589 1)" xlink:href="#radial-gradient"/>
  </defs>
  <g id="Group_47" data-name="Group 47" transform="translate(-84.667 -63.547)" clip-path="url(#clip-path)">
    <path id="Path_126" data-name="Path 126" d="M502.142,218s-11.348,26.927-41.647,9.491-32.768-35.181-90.886-18.089-79.229,16.078-91.657-3.544S242.078,159,192.509,161.9,117.423,97.689,81.693,86.815,20.07,109.5,20.07,109.5V455H688.078s-17.088-52.819-55.408-68.872-32.83-26.928-36.352-53.855-77.133-45.083-72-84.629S502.142,218,502.142,218Z" opacity="0.25" fill="url(#radial-gradient)"/>
    <path id="Path_127" data-name="Path 127" d="M31.635,114.633c4.143-2.617,76.64-20.041,99.425,28.981s46.95,49.624,83.544,52.637,25.546,3.616,66.283,29.9,64.664,12.614,94.353,3.217,77.067,13.126,114.949-6.458,39.426,12.561,39.426,12.561-10.545,28.041,20.1,47.661,15.6,42.233,24.131,78.137,91.483,89.067,91.483,89.067L16.445,416.5Z" opacity="0.25" fill="url(#radial-gradient-2)"/>
    <path id="Path_128" data-name="Path 128" d="M41.3,124.617s11.911,55.408,62.141,61.622,51.783,4.374,70.943,29.632,29.517,39.415,63.694,30.265,64.212-30.724,92.175-13.205,89.907,47.2,153.771-21.721,42.917,34.926,42.917,34.926-44.263,38.559,20.285,73.187c22.785,12.946,19.07,51.575,26.577,76.622s68.877,73.378,68.877,73.378-470.3,39.077-473.41,39.6S-9.447,412.533-9.447,412.533Z" fill="url(#radial-gradient-3)"/>
  </g>
</svg>
